<svg width="26" height="26" viewBox="0 0 26 26" fill="none" xmlns="http://www.w3.org/2000/svg">
<path fill-rule="evenodd" clip-rule="evenodd" d="M13 2C6.92487 2 2 6.92487 2 13C2 19.0751 6.92487 24 13 24C19.0751 24 24 19.0751 24 13C24 6.92487 19.0751 2 13 2ZM0 13C0 5.8203 5.8203 1.39362e-08 13 1.39362e-08C20.1797 1.39362e-08 26 5.8203 26 13C26 20.1797 20.1797 26 13 26C5.8203 26 0 20.1797 0 13Z" fill="black"/>
<path d="M8.5 14.5C9.32843 14.5 10 13.8284 10 13C10 12.1716 9.32843 11.5 8.5 11.5C7.67157 11.5 7 12.1716 7 13C7 13.8284 7.67157 14.5 8.5 14.5Z" fill="black"/>
<path d="M17.5 14.5C18.3284 14.5 19 13.8284 19 13C19 12.1716 18.3284 11.5 17.5 11.5C16.6716 11.5 16 12.1716 16 13C16 13.8284 16.6716 14.5 17.5 14.5Z" fill="black"/>
<path fill-rule="evenodd" clip-rule="evenodd" d="M8.85458 17.4469C9.16013 16.9868 9.78078 16.8615 10.2408 17.1671C11.0586 17.7102 12.0184 17.9999 13.0001 17.9999C13.9818 17.9999 14.9416 17.7102 15.7594 17.1671C16.2194 16.8615 16.8401 16.9868 17.1456 17.4469C17.4512 17.9069 17.3259 18.5276 16.8658 18.8331C15.7202 19.594 14.3754 19.9999 13.0001 19.9999C11.6248 19.9999 10.28 19.594 9.13437 18.8331C8.6743 18.5276 8.54904 17.9069 8.85458 17.4469Z" fill="black"/>
<path fill-rule="evenodd" clip-rule="evenodd" d="M13.6247 0.219168C14.056 0.564178 14.1259 1.19347 13.7809 1.62473C12.8837 2.74614 12.438 3.86376 12.2162 4.6952C12.1054 5.11084 12.0512 5.45275 12.0248 5.6839C12.0116 5.79931 12.0054 5.88658 12.0025 5.94099C12.001 5.96818 12.0004 5.98709 12.0002 5.99715L12 6.00415C12.0011 6.26788 12.1063 6.52058 12.2929 6.70714C12.4804 6.89468 12.7348 7.00004 13 7.00004C13.2652 7.00004 13.5196 6.89468 13.7071 6.70714C13.8946 6.51961 14 6.26525 14 6.00004C14 5.44775 14.4477 5.00004 15 5.00004C15.5523 5.00004 16 5.44775 16 6.00004C16 6.79569 15.6839 7.55875 15.1213 8.12136C14.5587 8.68397 13.7957 9.00004 13 9.00004C12.2043 9.00004 11.4413 8.68397 10.8787 8.12136C10.3161 7.55875 10 6.79569 10 6.00004H11C10 6.00004 10 6.00045 10 6.00004L10 5.99836L10 5.99644L10 5.99192L10.0001 5.98009L10.0008 5.94555C10.0015 5.91777 10.0029 5.88053 10.0053 5.83447C10.0102 5.7424 10.0197 5.61482 10.0377 5.4568C10.0738 5.14108 10.1446 4.70173 10.2838 4.17987C10.562 3.13631 11.1163 1.75393 12.2191 0.375342C12.5641 -0.0559202 13.1934 -0.125842 13.6247 0.219168Z" fill="black"/>
</svg>
