<svg width="26" height="26" viewBox="0 0 26 26" fill="none" xmlns="http://www.w3.org/2000/svg">
<path fill-rule="evenodd" clip-rule="evenodd" d="M13 5C13.5523 5 14 5.44772 14 6V8C14 8.55228 13.5523 9 13 9C12.4477 9 12 8.55228 12 8V6C12 5.44772 12.4477 5 13 5Z" fill="black"/>
<path fill-rule="evenodd" clip-rule="evenodd" d="M13 17C13.5523 17 14 17.4477 14 18V20C14 20.5523 13.5523 21 13 21C12.4477 21 12 20.5523 12 20V18C12 17.4477 12.4477 17 13 17Z" fill="black"/>
<path fill-rule="evenodd" clip-rule="evenodd" d="M13 2C6.92487 2 2 6.92487 2 13C2 19.0751 6.92487 24 13 24C19.0751 24 24 19.0751 24 13C24 6.92487 19.0751 2 13 2ZM0 13C0 5.8203 5.8203 0 13 0C20.1797 0 26 5.8203 26 13C26 20.1797 20.1797 26 13 26C5.8203 26 0 20.1797 0 13Z" fill="black"/>
<path fill-rule="evenodd" clip-rule="evenodd" d="M11.5 9C11.1022 9 10.7206 9.15804 10.4393 9.43934C10.158 9.72064 10 10.1022 10 10.5C10 10.8978 10.158 11.2794 10.4393 11.5607C10.7206 11.842 11.1022 12 11.5 12H14.5C15.4283 12 16.3185 12.3687 16.9749 13.0251C17.6313 13.6815 18 14.5717 18 15.5C18 16.4283 17.6313 17.3185 16.9749 17.9749C16.3185 18.6313 15.4283 19 14.5 19H10C9.44772 19 9 18.5523 9 18C9 17.4477 9.44772 17 10 17H14.5C14.8978 17 15.2794 16.842 15.5607 16.5607C15.842 16.2794 16 15.8978 16 15.5C16 15.1022 15.842 14.7206 15.5607 14.4393C15.2794 14.158 14.8978 14 14.5 14H11.5C10.5717 14 9.6815 13.6313 9.02513 12.9749C8.36875 12.3185 8 11.4283 8 10.5C8 9.57174 8.36875 8.6815 9.02513 8.02513C9.6815 7.36875 10.5717 7 11.5 7H16C16.5523 7 17 7.44772 17 8C17 8.55229 16.5523 9 16 9H11.5Z" fill="black"/>
</svg>
