<svg width="26" height="26" viewBox="0 0 26 26" fill="none" xmlns="http://www.w3.org/2000/svg">
<path d="M13 26C5.85 26 0 20.15 0 13C0 5.85 5.85 0 13 0C20.15 0 26 5.85 26 13C26 20.15 20.15 26 13 26ZM13 1.625C6.74375 1.625 1.625 6.74375 1.625 13C1.625 19.2562 6.74375 24.375 13 24.375C19.2562 24.375 24.375 19.2562 24.375 13C24.375 6.74375 19.2562 1.625 13 1.625Z" fill="black"/>
<path d="M9.62813 10.5625H7.10938V18.6875H9.62813V10.5625Z" fill="black"/>
<path d="M8.36875 9.425C7.55625 9.425 6.90625 8.775 6.90625 7.9625C6.90625 7.15 7.55625 6.5 8.36875 6.5C9.18125 6.5 9.83125 7.15 9.83125 7.9625C9.83125 8.775 9.18125 9.425 8.36875 9.425Z" fill="black"/>
<path d="M19.0938 18.6875H16.575V14.7469C16.575 13.8125 16.575 12.5938 15.275 12.5938C13.975 12.5938 13.7719 13.6094 13.7719 14.6656V18.6875H11.2532V10.5625H13.6907V11.6594H13.7313C14.0563 11.0094 14.9094 10.3594 16.1282 10.3594C18.6875 10.3594 19.175 12.025 19.175 14.2188V18.6875H19.0938Z" fill="black"/>
</svg>
