<svg width="69" height="70" viewBox="0 0 69 70" fill="none" xmlns="http://www.w3.org/2000/svg">
<g clip-path="url(#clip0_1_35)">
<rect width="69" height="70" fill="white"/>
<path d="M74.043 58.411C72.875 58.4222 71.759 58.8955 70.9391 59.7274C70.1191 60.5593 69.6619 61.682 69.6675 62.85C69.6732 64.0181 70.1411 65.1363 70.969 65.9603C71.7969 66.7842 72.9175 67.2468 74.0855 67.2468C75.2535 67.2468 76.3741 66.7842 77.202 65.9603C78.0299 65.1363 78.4978 64.0181 78.5034 62.85C78.5091 61.682 78.0519 60.5593 77.232 59.7274C76.412 58.8955 75.296 58.4222 74.128 58.411H74.043ZM74.043 66.741C73.2769 66.7537 72.5242 66.539 71.8802 66.124C71.2361 65.709 70.7296 65.1123 70.4246 64.4094C70.1196 63.7065 70.03 62.929 70.1669 62.1751C70.3039 61.4212 70.6613 60.7249 71.194 60.1742C71.7267 59.6234 72.4107 59.243 73.1596 59.0811C73.9085 58.9191 74.6886 58.9828 75.4012 59.2642C76.1139 59.5456 76.7271 60.032 77.1634 60.6619C77.5996 61.2918 77.8392 62.0369 77.852 62.803V62.868C77.8734 63.873 77.4949 64.8453 76.7995 65.5713C76.1042 66.2972 75.149 66.7172 74.144 66.739H74.044M57.084 57.204H47.484V42.17C47.484 38.585 47.42 33.97 42.491 33.97C37.491 33.97 36.726 37.876 36.726 41.909V57.203H27.126V26.287H36.342V30.512H36.471C37.3933 28.935 38.7261 27.6378 40.3273 26.7583C41.9286 25.8789 43.7384 25.4502 45.564 25.518C55.294 25.518 57.088 31.918 57.088 40.244L57.084 57.204ZM16.294 22.061C15.1922 22.0612 14.115 21.7346 13.1987 21.1227C12.2825 20.5107 11.5683 19.6407 11.1465 18.6228C10.7246 17.6049 10.6141 16.4848 10.8289 15.4041C11.0436 14.3234 11.574 13.3307 12.353 12.5514C13.132 11.7721 14.1245 11.2414 15.2052 11.0262C16.2858 10.8111 17.406 10.9212 18.424 11.3427C19.442 11.7641 20.3122 12.478 20.9246 13.3941C21.5369 14.3101 21.8638 15.3871 21.864 16.489C21.8641 17.2206 21.7202 17.945 21.4403 18.621C21.1605 19.2969 20.7502 19.9112 20.233 20.4286C19.7158 20.946 19.1017 21.3564 18.4259 21.6365C17.75 21.9166 17.0256 22.0609 16.294 22.061ZM21.094 57.204H11.484V26.287H21.094V57.204ZM61.87 2.00399H6.66C5.40689 1.98984 4.19942 2.47378 3.30293 3.34945C2.40645 4.22512 1.89429 5.42089 1.879 6.67399V62.113C1.89377 63.3667 2.40561 64.5633 3.30206 65.4399C4.19852 66.3164 5.40627 66.8013 6.66 66.788H61.87C63.1262 66.8037 64.3373 66.3202 65.2373 65.4437C66.1373 64.5671 66.6526 63.3692 66.67 62.113V6.66999C66.6521 5.4144 66.1365 4.21728 65.2365 3.34163C64.3364 2.46598 63.1256 1.98343 61.87 1.99999M-24.25 33.749C-29.05 33.749 -31.93 36.954 -31.93 41.624C-31.93 46.294 -29.051 49.502 -24.25 49.502C-19.449 49.502 -16.563 46.302 -16.563 41.624C-16.563 36.946 -19.444 33.749 -24.25 33.749ZM-7.72501 57.186H-16.563V53.086H-16.694C-17.8028 54.5773 -19.2409 55.7925 -20.8963 56.6369C-22.5518 57.4812 -24.3798 57.932 -26.238 57.954C-35.462 57.954 -41.538 51.297 -41.538 41.883C-41.538 33.237 -36.161 25.298 -27.322 25.298C-23.349 25.298 -19.638 26.385 -17.461 29.398H-17.335V11.577H-7.726L-7.72501 57.186ZM-53.864 38.138C-53.8456 37.3591 -53.9856 36.5847 -54.2753 35.8615C-54.5651 35.1383 -54.9986 34.4815 -55.5497 33.9308C-56.1008 33.3801 -56.7579 32.947 -57.4812 32.6578C-58.2046 32.3685 -58.9792 32.2291 -59.758 32.248C-61.4354 32.1436 -63.0866 32.7026 -64.3556 33.8044C-65.6246 34.9062 -66.4099 36.4626 -66.542 38.138H-53.864ZM-45.732 51.838C-47.3273 53.7725 -49.3328 55.328 -51.6033 56.3918C-53.8739 57.4557 -56.3526 58.0012 -58.86 57.989C-68.46 57.989 -76.146 51.581 -76.146 41.658C-76.146 31.735 -68.461 25.33 -58.86 25.33C-49.887 25.33 -44.26 31.73 -44.26 41.658V44.668H-66.542C-66.2646 46.375 -65.3796 47.9244 -64.05 49.0304C-62.7205 50.1365 -61.0361 50.7248 -59.307 50.687C-57.9406 50.6785 -56.598 50.3284 -55.4014 49.6686C-54.2048 49.0087 -53.1923 48.0601 -52.456 46.909L-45.732 51.838ZM-141.166 26.279H-131.947V30.504H-131.816C-130.895 28.9264 -129.563 27.6285 -127.962 26.7489C-126.361 25.8694 -124.551 25.4411 -122.726 25.51C-112.991 25.51 -111.199 31.915 -111.199 40.236V57.19H-120.799V42.159C-120.799 38.571 -120.865 33.959 -125.799 33.959C-130.789 33.959 -131.559 37.866 -131.559 41.898V57.186H-141.159L-141.166 26.279ZM-106.331 11.58H-96.731V38.845L-85.851 26.262H-74.081L-86.681 40.575L-74.346 57.205H-86.412L-96.603 41.923H-96.729V57.203H-106.329L-106.331 11.58ZM-156.089 26.276H-146.489V57.192H-156.089V26.276ZM-151.289 10.906C-150.188 10.9062 -149.111 11.233 -148.195 11.845C-147.28 12.4571 -146.566 13.3269 -146.145 14.3445C-145.723 15.3621 -145.613 16.4818 -145.828 17.5621C-146.043 18.6423 -146.574 19.6345 -147.352 20.4132C-148.131 21.192 -149.124 21.7223 -150.204 21.9371C-151.284 22.1519 -152.404 22.0415 -153.421 21.62C-154.439 21.1984 -155.309 20.4846 -155.921 19.5689C-156.532 18.6531 -156.859 17.5764 -156.859 16.475C-156.859 15.7436 -156.715 15.0193 -156.435 14.3436C-156.155 13.6679 -155.745 13.0539 -155.228 12.5368C-154.71 12.0196 -154.096 11.6094 -153.42 11.3296C-152.745 11.0498 -152.02 10.9059 -151.289 10.906ZM-189 11.587H-179.007V47.987H-160.507V57.209H-189V11.587ZM74.744 63.109C74.9084 63.1106 75.0714 63.0785 75.2228 63.0145C75.3743 62.9505 75.511 62.8561 75.6245 62.7371C75.7379 62.6182 75.8257 62.4771 75.8824 62.3228C75.9391 62.1685 75.9635 62.0041 75.954 61.84C75.954 60.94 75.411 60.51 74.297 60.51H72.497V65.222H73.174V63.168H74.006L74.025 63.193L75.316 65.222H76.04L74.651 63.122L74.744 63.109ZM73.961 62.637H73.176V61.044H74.171C74.685 61.044 75.271 61.128 75.271 61.801C75.271 62.575 74.678 62.637 73.957 62.637" fill="#0A66C2"/>
</g>
<defs>
<clipPath id="clip0_1_35">
<rect width="69" height="70" fill="white"/>
</clipPath>
</defs>
</svg>
